<svg id="e98d0c35-b13c-4b93-8b53-f7a62ba34407" data-name="Layer 1" xmlns="http://www.w3.org/2000/svg" viewBox="0 0 500 500"><rect width="500" height="500" style="fill:#8179b7"/><path d="M182.94,405.39q0-7.77-8.19-7.77a11.31,11.31,0,0,0-7.62,2.54,4.91,4.91,0,0,1-2.26,1.41,11.84,11.84,0,0,1-2.83.29H144.11a3.32,3.32,0,0,1-2.33-.85,2.58,2.58,0,0,1-.78-2.26q.44-4.38,4.88-9.11A34.55,34.55,0,0,1,158,381.73a43.2,43.2,0,0,1,16.8-3.17q16.81,0,25.21,7.62t8.4,20.62v42.79a3.64,3.64,0,0,1-1.13,2.68,3.68,3.68,0,0,1-2.68,1.13H186.76a3.86,3.86,0,0,1-3.82-3.81v-4a24,24,0,0,1-8.75,6.85,30.82,30.82,0,0,1-12.85,2.33q-11.86,0-18.57-6.21t-6.71-16.1A19.25,19.25,0,0,1,143.4,417q7.35-6.08,23-8.76Zm-13,18.78a13.92,13.92,0,0,0-6.21,2.47,5.29,5.29,0,0,0-2.26,4.31q0,4.8,6.78,4.8a14.74,14.74,0,0,0,10.45-4,12.64,12.64,0,0,0,4.23-9.6Z" style="fill:#fff"/><path d="M263.86,431.51h11.3a3.86,3.86,0,0,1,3.81,3.81v14.27a3.86,3.86,0,0,1-3.81,3.81H261.74q-13.43,0-21.39-7.48t-8-20.34V401.86H221.92A3.86,3.86,0,0,1,218.1,398V383.78a3.86,3.86,0,0,1,3.82-3.81h10.45V357a3.86,3.86,0,0,1,3.81-3.81H254a3.86,3.86,0,0,1,3.82,3.81v23h15.95a3.86,3.86,0,0,1,3.82,3.81V398a3.86,3.86,0,0,1-3.82,3.82H257.79v22.87Q257.79,431.51,263.86,431.51Z" style="fill:#fff"/><path d="M294.22,416.75q-5.79-6-5.79-15.46a17.85,17.85,0,0,1,4.17-11.51,28.21,28.21,0,0,1,11.72-8.19,45.72,45.72,0,0,1,17.15-3,48.42,48.42,0,0,1,17.16,2.89,34,34,0,0,1,12.22,7.41q4.51,4.53,4.94,9.47a3.15,3.15,0,0,1-1.06,2.68,3.92,3.92,0,0,1-2.75,1.13H335.17a6.55,6.55,0,0,1-3.67-1.56,15.14,15.14,0,0,0-3.95-2.18,18.43,18.43,0,0,0-6.08-.78,13,13,0,0,0-5.5,1,3.16,3.16,0,0,0-2.12,3,3.72,3.72,0,0,0,.77,2.55,5.37,5.37,0,0,0,2.83,1.27q2,.42,7.13,1.13l8.76,1.41q12.29,2,18.42,8.4a21.4,21.4,0,0,1,6.15,15.32,18.05,18.05,0,0,1-4.31,11.65q-4.31,5.29-12.43,8.41a53.69,53.69,0,0,1-19.13,3.1,51,51,0,0,1-18.43-3q-7.83-3-12-7.7T287,434.62a3.14,3.14,0,0,1,1.06-2.69,3.9,3.9,0,0,1,2.75-1.13h17.51a3.24,3.24,0,0,1,1.62.36,6.82,6.82,0,0,1,1.49,1.2,13.49,13.49,0,0,0,3.81,2.47,18.32,18.32,0,0,0,6.78.92,20.18,20.18,0,0,0,7.41-1.2q3-1.2,3-3.18a3,3,0,0,0-2.19-3,66.87,66.87,0,0,0-9.39-1.9l-10.17-1.7Q300,422.77,294.22,416.75Z" style="fill:#fff"/><path d="M370.76,381.1a3.62,3.62,0,0,1,2.68-1.13h17.79a3.86,3.86,0,0,1,3.82,3.81v35.73q0,6.35,2.82,9.88t8.76,3.53q11.43,0,11.43-13.41V383.78a3.86,3.86,0,0,1,3.82-3.81h17.79a3.86,3.86,0,0,1,3.81,3.81v65.81a3.86,3.86,0,0,1-3.81,3.81H423.29a3.86,3.86,0,0,1-3.81-3.81v-3.25a23.64,23.64,0,0,1-7.56,6.07q-4.59,2.4-12.35,2.4-14.13,0-22-8.05t-7.91-24.15V383.78A3.64,3.64,0,0,1,370.76,381.1Z" style="fill:#fff"/></svg>