<svg id="ee0093f6-71c2-4f17-84a8-2ed9beadf7ce" data-name="Layer 1" xmlns="http://www.w3.org/2000/svg" viewBox="0 0 500 500"><rect width="500" height="500" style="fill:#0e0e0e"/><path d="M460.7,108.62V355.79c0,11.87-9.6,21.78-21.95,22.43-36.19,1.9-109.39,8.85-160,34.32-7.79,3.93-17-1.42-17-9.87V136.46a11.24,11.24,0,0,1,5.32-9.63c49.19-30.11,128.88-38.4,169-40.67C449.47,85.39,460.7,95.63,460.7,108.62Z" transform="translate(0 0)" style="fill:#7069ae;opacity:0.6"/><path d="M233,126.83C183.79,96.72,104.1,88.44,64,86.16c-13.48-.77-24.71,9.47-24.71,22.46V355.79c0,11.88,9.6,21.79,22,22.43,36.2,1.91,109.44,8.86,160.05,34.35,7.77,3.92,17-1.42,17-9.84V136.33A11,11,0,0,0,233,126.83Z" transform="translate(0 0)" style="fill:#7069ae"/><path d="M401.2,402.71a88.36,88.36,0,0,1,3.85,14.63c.52,3.59-.17,6.28-2.05,8.08s-5.22,2.91-10,3.34-11.38.64-19.76.64q-13.08,0-20.4-.39a50.06,50.06,0,0,1-11.16-1.54c-2.56-.77-4.36-1.83-5.39-3.21a17.51,17.51,0,0,1-2.56-5.38l-22.33-66.72H186.68l-21,64.92a20.51,20.51,0,0,1-2.69,6,11,11,0,0,1-5.39,3.85A39.25,39.25,0,0,1,147,428.88q-6.81.51-17.83.52a171.73,171.73,0,0,1-18.48-.77c-4.45-.52-7.53-1.75-9.24-3.72s-2.31-4.75-1.79-8.34a82.56,82.56,0,0,1,3.85-14.37L205.93,107.62a25.93,25.93,0,0,1,3.59-7.06,12.75,12.75,0,0,1,6.55-4.1,51.77,51.77,0,0,1,12.44-1.8q8-.39,21-.39,15.13,0,24.12.39a64.49,64.49,0,0,1,14,1.8c3.33.94,5.73,2.35,7.18,4.23a24.77,24.77,0,0,1,3.72,7.7ZM248.78,159.2h-.25l-47,141.13h94.17Z" transform="translate(0 0)" style="fill:#fff"/><path d="M345.22,199V18.66C345.22,8.35,350.41,0,356.81,0h69.5c6.39,0,11.58,8.35,11.58,18.66V199l-46.33-43.53Z" transform="translate(0 0)" style="fill:#ec6062"/><rect x="345.22" width="92.56" height="49.22" style="fill:#ec6062"/></svg>