<svg id="b6133cd8-bc92-43d3-bc96-86a53ee349fa" data-name="Layer 1" xmlns="http://www.w3.org/2000/svg" viewBox="0 0 768.3 259"><path d="M275.32,375.64a67.49,67.49,0,0,1,2.93,11.3q.6,4.17-1.58,6.25t-7.74,2.58q-5.55.48-15.27.49-10.11,0-15.77-.29a39.19,39.19,0,0,1-8.62-1.2,7.77,7.77,0,0,1-4.17-2.48,13.62,13.62,0,0,1-2-4.16l-17.25-51.56H109.51L93.25,386.74a16.14,16.14,0,0,1-2.08,4.66,8.5,8.5,0,0,1-4.17,3,30.41,30.41,0,0,1-8.13,1.46q-5.27.39-13.78.4a131.13,131.13,0,0,1-14.29-.6q-5.13-.58-7.13-2.87t-1.37-6.42a64.12,64.12,0,0,1,2.93-11.14l79.14-227.64a19.83,19.83,0,0,1,2.78-5.46,9.85,9.85,0,0,1,5-3.17,40.13,40.13,0,0,1,9.62-1.39q6.15-.3,16.26-.29,11.73,0,18.65.29a49.78,49.78,0,0,1,10.8,1.39,10.38,10.38,0,0,1,5.56,3.27,19.39,19.39,0,0,1,2.87,5.95ZM157.5,187.43h-.16L121,296.51H193.8Z" transform="translate(-42.14 -137.26)" style="fill:#7069ae"/><path d="M702.19,329.67V153c0-10.13-5.59-15.71-15.71-15.71H651.91c-10.13,0-15.72,5.58-15.72,15.71v83.92c0,2.36,22.77,13.33,23.37,15.65,17.34,67.79,3.77,122-12.68,124.57,26.89,1.33,29.85,14.26,9.82,5.42,3.06-36.16,15-36.09,49.39-1.33.29.3,7,14.47,7.47,14.47h81.17c10.13,0,15.72-5.59,15.72-15.71V345.38c0-10.12-5.59-15.71-15.72-15.71Z" transform="translate(-42.14 -137.26)" style="fill:#45a0d9;fill-rule:evenodd"/><path d="M558.68,137.26,467.89,395.67h70.54L553.79,351h76.83l15,44.7h70.19L625.38,137.26ZM569.85,293.7l22-71.59L616,293.7Z" transform="translate(-42.14 -137.26)" style="fill:#fff;fill-rule:evenodd"/><circle cx="244.49" cy="142.9" r="22.25" style="fill:#dadada"/><circle cx="307.68" cy="142.9" r="22.25" style="fill:#b2b2b2"/><circle cx="370.88" cy="142.9" r="22.25" style="fill:#878787"/><circle cx="432.72" cy="142.9" r="22.25" style="fill:#706f6f"/></svg>